HIERARCHY
ROOT pelvis
{
  OFFSET 0 100 0
  CHANNELS 6 Xposition Yposition Zposition Zrotation Xrotation Yrotation
  JOINT pelvis_right_femur
  {
    OFFSET -10.78128 -3.44521 -0.5502486
    CHANNELS 3 Zrotation Xrotation Yrotation
    JOINT right_femur_tibia
    {
      OFFSET -0.8047443 -44.0398 -0.1307829
      CHANNELS 3 Zrotation Xrotation Yrotation
      JOINT right_tibia_foot
      {
        OFFSET 3.006224 -47.83518 -5
        CHANNELS 3 Zrotation Xrotation Yrotation
        End Site
        {
          OFFSET 0 -5 15
        }
      }
    }
  }
  JOINT pelvis_left_femur
  {
    OFFSET 10.78128 -3.44521 -0.5502486
    CHANNELS 3 Zrotation Xrotation Yrotation
    JOINT left_femur_tibia
    {
      OFFSET 0.8047443 -44.0398 -0.1307829
      CHANNELS 3 Zrotation Xrotation Yrotation
      JOINT left_tibia_foot
      {
        OFFSET -4.370144 -48.10324 -4.275266
        CHANNELS 3 Zrotation Xrotation Yrotation
        End Site
        {
          OFFSET 0 -5 15
        }
      }
    }
  }
  JOINT pelvis_spine1
  {
    OFFSET 0 6.468898 -3.129235
    CHANNELS 3 Zrotation Xrotation Yrotation
    JOINT spine1
    {
      OFFSET 0 23.15396 4.99043
      CHANNELS 3 Zrotation Xrotation Yrotation
      JOINT spine2
      {
        OFFSET 0 20.79997 -5.064912
        CHANNELS 3 Zrotation Xrotation Yrotation
        JOINT neck
        {
          OFFSET 0 14.38658 9.616178
          CHANNELS 3 Zrotation Xrotation Yrotation
          End Site
          {
            OFFSET 0 20 0
          }
        }
      }
      JOINT right_manubrium
      {
        OFFSET -5.722621 16.35077 3.967754
        CHANNELS 3 Zrotation Xrotation Yrotation
        JOINT right_clavicle
        {
          OFFSET -13.16364 1.694482 -4.693211
          CHANNELS 3 Zrotation Xrotation Yrotation
          JOINT right_humerus
          {
            OFFSET -28.5034 -0.3100689 -2.792744
            CHANNELS 3 Zrotation Xrotation Yrotation
            JOINT right_radius
            {
              OFFSET -25.15693 0.02248979 -1.271978
              CHANNELS 3 Zrotation Xrotation Yrotation
              End Site
              {
                OFFSET -15 0 0
              }
            }
          }
        }
      }
      JOINT left_manubrium
      {
        OFFSET 5.722621 16.35077 3.967754
        CHANNELS 3 Zrotation Xrotation Yrotation
        JOINT left_clavicle
        {
          OFFSET 13.16364 1.694482 -4.693211
          CHANNELS 3 Zrotation Xrotation Yrotation
          JOINT left_humerus
          {
            OFFSET 29.39168 -1.063119 -2.237045
            CHANNELS 3 Zrotation Xrotation Yrotation
            JOINT left_radius
            {
              OFFSET 24.59957 -0.9528479 0.9047498
              CHANNELS 3 Zrotation Xrotation Yrotation
              End Site
              {
                OFFSET 15 -0 -0
              }
            }
          }
        }
      }
    }
  }
}
MOTION
Frames: 15
Frame Time: 0.0416666666667
0 103.5113 0 2.20442 -1.152017 0.2838667 1.202795 -10.08002 8.656042 -0 33.78763 -0 -5.260211 -17.82949 -2.205429 -8.065744 10.09819 -23.44586 -0 5.217718 -0 7.643363 -16.17922 26.51647 -4.360851 -5.059087 4.975951 2.032839 9.212011 -7.73086 0.8361908 22.79111 7.184656 3.2705 -23.10568 8.802824 6.36204 -19.73151 11.57588 86.32671 35.94777 -19.82152 -0 0 16.20175 -7.56926 8.244649 4.61064 5.526317 -19.48393 -1.711083 -94.75653 29.74704 22.85601 0 0 -16.07743 3.505157 17.87486 9.531706
0.3478986 103.3968 1.423894 2.106298 -0.9500873 0.500146 1.374257 -10.98161 8.416817 -0 32.1716 -0 -5.291202 -17.20629 -1.952906 -7.994066 10.24421 -23.21186 -0 5.44855 -0 7.430384 -16.4806 26.21857 -4.335872 -4.892886 4.959403 2.129666 9.181204 -7.726062 0.8599813 22.65845 7.219364 3.328772 -23.23898 8.822211 6.322626 -19.62103 11.57086 86.35388 35.92837 -19.92914 -0 0 16.00298 -7.592027 8.281348 4.619915 5.639481 -19.5355 -1.741615 -94.60504 29.70851 22.57742 0 0 -16.49457 3.560981 17.73488 9.458514
0.7141114 103.215 3.000022 1.982977 -0.655684 0.7052781 1.575872 -12.16335 8.063509 -0 29.64268 -0 -5.330666 -16.30582 -1.542453 -7.913436 10.43668 -22.85632 -0 5.841682 -0 7.102003 -16.88397 25.76045 -4.305521 -4.677246 4.948291 2.259625 9.138507 -7.711177 0.8957822 22.47358 7.262987 3.41079 -23.41931 8.844838 6.25881 -19.45349 11.55846 86.408 35.8995 -20.09307 -0 0 15.70665 -7.623815 8.337843 4.631929 5.803392 -19.61337 -1.782804 -94.3815 29.65201 22.1663 0 0 -17.08789 3.634224 17.53852 9.354138
1.103403 102.9501 4.778662 1.844979 -0.2787029 0.911475 1.781702 -13.50254 7.611251 -0 26.27208 -0 -5.384661 -15.17831 -0.9821493 -7.83173 10.65388 -22.38141 -0 6.441934 -0 6.647127 -17.33712 25.13464 -4.266225 -4.433693 4.945208 2.411611 9.086139 -7.686171 0.9402841 22.24901 7.311065 3.51072 -23.6319 8.865408 6.171518 -19.2308 11.53706 86.49598 35.86163 -20.311 -0 0 15.31822 -7.664106 8.415097 4.646922 6.004654 -19.71361 -1.833141 -94.09609 29.57727 21.64365 0 0 -17.81625 3.715794 17.29348 9.228502
1.51799 102.6004 6.807891 1.696903 0.1624239 1.134975 1.976165 -14.83465 7.088684 -0 22.28162 -0 -5.46786 -13.91149 -0.3084574 -7.746423 10.86395 -21.79088 -0 7.334933 -0 6.04215 -17.75122 24.32586 -4.202922 -4.188069 4.945998 2.571032 9.026173 -7.656669 0.9854259 22.00309 7.359423 3.619094 -23.85694 8.87554 6.065796 -18.95617 11.50593 86.62631 35.81594 -20.57811 -0 0 14.84495 -7.71356 8.515102 4.666888 6.216148 -19.82684 -1.893117 -93.76743 29.48332 21.05067 0 0 -18.60895 3.792007 17.00598 9.10092
1.956064 102.1866 9.134502 1.539137 0.6422712 1.395422 2.153665 -15.94976 6.535583 -0 18.01156 -0 -5.598546 -12.62585 0.4215166 -7.646273 11.02387 -21.08777 -0 8.651484 -0 5.252287 -18.0006 23.31075 -4.090269 -3.971271 4.941331 2.719649 8.960538 -7.632743 1.018889 21.75965 7.403727 3.723079 -24.06943 8.863442 5.949934 -18.63289 11.4647 86.8099 35.76431 -20.88813 -0 0 14.29426 -7.774019 8.641131 4.695418 6.398428 -19.93896 -1.965116 -93.42054 29.36902 20.44529 0 0 -19.36885 3.844782 16.68075 8.99909
2.41277 101.7502 11.80314 1.371044 1.132467 1.713678 2.316045 -16.64978 5.991346 -0 13.80777 -0 -5.788827 -11.44079 1.150223 -7.518493 11.08601 -20.2774 -0 10.51571 -0 4.254672 -17.96154 22.0782 -3.904664 -3.810063 4.923228 2.840345 8.891718 -7.623273 1.0288 21.54187 7.439761 3.810217 -24.24518 8.817564 5.832764 -18.2662 11.41432 87.05367 35.70859 -21.2312 -0 0 13.67631 -7.848627 8.795966 4.736888 6.513444 -20.03565 -2.051654 -93.08002 29.23395 19.88511 0 0 -20.00289 3.857672 16.32209 8.949171
2.883545 101.3433 14.85109 1.195834 1.601067 2.106532 2.465193 -16.79849 5.483929 -0 9.917023 -0 -6.037736 -10.44589 1.837166 -7.357192 10.99247 -19.3717 -0 12.99847 -0 3.063085 -17.55032 20.65343 -3.638073 -3.716081 4.894599 2.921463 8.82475 -7.62822 1.00849 21.36729 7.463231 3.872053 -24.36511 8.729772 5.721511 -17.86736 11.35939 87.35067 35.6502 -21.58714 -0 0 13.0101 -7.943828 8.979992 4.796845 6.538081 -20.10627 -2.153103 -92.76503 29.07826 19.41266 0 0 -20.45206 3.821635 15.93508 8.966055
3.367711 101.0163 18.29826 1.026829 2.002339 2.577932 2.593552 -16.30126 5.028876 -0 6.475829 -0 -6.330611 -9.708725 2.460471 -7.167332 10.64305 -18.39069 -0 16.13272 -0 1.734556 -16.7217 19.10781 -3.3039 -3.681468 4.878201 2.95573 8.770434 -7.632164 0.9572265 21.25047 7.468118 3.904131 -24.41109 8.593814 5.622303 -17.45807 11.31149 87.67172 35.59125 -21.91464 -0 0 12.33066 -8.074194 9.191004 4.884902 6.46532 -20.14299 -2.266449 -92.49129 28.90121 19.05762 0 0 -20.69315 3.734863 15.52556 9.052565
3.870283 100.8096 22.13523 0.8917515 2.269986 3.109065 2.679827 -15.06585 4.633892 -0 3.545938 -0 -6.641597 -9.293586 3.010723 -6.96238 9.872685 -17.36148 -0 19.94536 -0 0.3604819 -15.45354 17.553 -2.935325 -3.68053 4.919077 2.93737 8.746814 -7.602752 0.8786735 21.20728 7.445483 3.904439 -24.3606 8.402731 5.541249 -17.07204 11.29041 87.96358 35.53573 -22.14607 -0 0 11.69194 -8.265376 9.424849 5.016933 6.299177 -20.13844 -2.38526 -92.2747 28.70016 18.84496 0 0 -20.72686 3.599908 15.09982 9.203264
4.400279 100.7507 26.31915 0.8262994 2.335744 3.656078 2.697592 -13.01646 4.302862 -0 1.13921 -0 -6.940272 -9.25383 3.486086 -6.754279 8.499729 -16.31313 -0 24.4379 -0 -0.9594941 -13.75072 16.1114 -2.573718 -3.680064 5.068611 2.862132 8.773389 -7.502161 0.7788696 21.25203 7.386023 3.873072 -24.19158 8.150759 5.482929 -16.74705 11.31756 88.16429 35.48851 -22.20554 -0 0 11.15446 -8.547145 9.675987 5.21111 6.050704 -20.08658 -2.501379 -92.12908 28.4718 18.79355 0 0 -20.56835 3.421761 14.66399 9.408265
4.966214 100.8568 30.78257 0.8592824 2.162278 4.161188 2.62864 -10.14399 4.036963 0 -0.7751899 0 -7.198587 -9.606379 3.89084 -6.543301 6.412521 -15.26884 -0 29.51101 -0 -2.146781 -11.66614 14.881 -2.253981 -3.654236 5.358904 2.729067 8.860919 -7.305378 0.6646269 21.38995 7.284768 3.812811 -23.89307 7.838305 5.446566 -16.51356 11.40461 88.22423 35.45197 -22.03571 -0 0 10.76848 -8.942793 9.937439 5.481529 5.737194 -19.98567 -2.6069 -92.05979 28.21458 18.90812 0 0 -20.24305 3.207136 14.22364 9.655916
5.572459 101.1298 35.44788 1.003602 1.757982 4.570725 2.464819 -6.527247 3.832199 0 -2.272677 0 -7.3886 -10.32105 4.237267 -6.31665 3.598357 -14.24046 -0 34.86898 -0 -3.148621 -9.323634 13.93213 -2.001801 -3.591863 5.791279 2.540274 9.005857 -7.008157 0.5434427 21.61343 7.143055 3.729137 -23.46859 7.47461 5.421993 -16.39519 11.54694 88.10634 35.42311 -21.59853 -0 0 10.57718 -9.470506 10.1994 5.839008 5.385496 -19.83934 -2.693484 -92.06048 27.92943 19.17627 0 0 -19.78646 2.964205 13.78381 9.933582
6.21921 101.5448 40.24032 1.255692 1.17319 4.852147 2.202091 -2.322174 3.675944 0 -3.476351 0 -7.474368 -11.32584 4.5486 -6.051786 0.1198409 -13.226 -0 39.95083 -0 -3.925602 -6.93308 13.32562 -1.83973 -3.495724 6.339079 2.299288 9.190334 -6.62477 0.4242702 21.90292 6.967747 3.629556 -22.9327 7.077461 5.387108 -16.41714 11.72296 87.7722 35.39198 -20.85754 -0 0 10.63258 -10.15262 10.44732 6.296683 5.036269 -19.6557 -2.750261 -92.11367 27.61909 19.57105 0 0 -19.24572 2.702428 13.34928 10.22723
6.905648 102.0411 45.0977 1.59937 0.4827034 5.002898 1.83882 2.271569 3.550191 0 -4.533389 0 -7.4142 -12.52402 4.856109 -5.721639 -3.914474 -12.21169 -0 44.03485 -0 -4.449215 -4.753381 13.11236 -1.787957 -3.378158 6.958956 2.010626 9.387938 -6.180893 0.3167401 22.23153 6.768963 3.522184 -22.30645 6.66942 5.312843 -16.60573 11.90069 87.18325 35.34217 -19.77704 -0 0 10.99239 -11.01438 10.66303 6.869153 4.737775 -19.4452 -2.765279 -92.19564 27.28746 20.05776 0 0 -18.6734 2.43143 12.92459 10.52274
